# xmcd
#
# Track frame offsets:
#	150
#	17872
#	32015
#	42398
#	49811
#	63593
#	78835
#	98182
#	106359
#	120241
#	130097
#	140990
#
# Disc length: 2069 seconds
#
# Revision: 1
# Processed by: cddbd v1.5.1PL0 Copyright (c) Steve Scherf et al.
# Submitted via: audiograbber 1.83.01
#
DISCID=a208130c
DTITLE=Marty Robbins - Gunfighter Ballads and Trail Songs
DYEAR=1900
DGENRE=
TTITLE0=Big Iron
TTITLE1=Cool Water
TTITLE2=Billy the Kid
TTITLE3=A Hundred and Sixty Acres
TTITLE4=They're Hanging Me Tonight
TTITLE5=Strawberry Road
TTITLE6=El Paso
TTITLE7=In The Valley
TTITLE8=The Master's Call
TTITLE9=Running Gun
TTITLE10=Down in the Little Green Valley
TTITLE11=Utah Canal
EXTD=
EXTT0=
EXTT1=
EXTT2=
EXTT3=
EXTT4=
EXTT5=
EXTT6=
EXTT7=
EXTT8=
EXTT9=
EXTT10=
EXTT11=
PLAYORDER=
